# xmcd
#
# Track frame offsets:
#	150
#	12440
#	23452
#	37332
#	49547
#	61507
#	71352
#	84137
#	94637
#	106445
#	119235
#	134442
#	146437
#	164030
#	177750
#	188865
#
# Disc length: 2663 seconds
#
# Revision: 4
# Processed by: cddbd v1.5.2PL0 Copyright (c) Steve Scherf et al.
# Submitted via: EasyCDDAExtractor 16.0.6.1
#
DISCID=d40a6510
DTITLE=Neil Diamond - R-095 First Hits
DYEAR=1989
DGENRE=Country
TTITLE0=Cherry Cherry
TTITLE1=Kentucky Woman
TTITLE2=Thank The Lord For The Night Time
TTITLE3=The Boat That I Row
TTITLE4=Red, Red Wine
TTITLE5=I Got The Feelin' (Oh No No)
TTITLE6=You Got To Me
TTITLE7=Love To Love
TTITLE8=Solitary Man
TTITLE9=Hanky Panky
TTITLE10=Girl, You'll Be A Woman Soon
TTITLE11=I'm A Believer
TTITLE12=Shilo
TTITLE13=I'll Come Running
TTITLE14=Crooked Street
TTITLE15=New Orleans
EXTD=YEAR: 1989
EXTT0=
EXTT1=
EXTT2=
EXTT3=
EXTT4=
EXTT5=
EXTT6=
EXTT7=
EXTT8=
EXTT9=
EXTT10=
EXTT11=
EXTT12=
EXTT13=
EXTT14=
EXTT15=
PLAYORDER=
